<mxfile host="app.diagrams.net" modified="2023-11-14T08:14:52.051Z" agent="Mozilla/5.0 (Macintosh; Intel Mac OS X 10_15_7) AppleWebKit/537.36 (KHTML, like Gecko) Chrome/119.0.0.0 Safari/537.36" etag="EujyrGNoYqd0gcTVWCal" version="22.1.0" type="github" pages="2">
  <diagram name="SKATER HOME PAGE DESKTOP" id="HCEqrU8igU5yNVbFq01C">
    <mxGraphModel dx="1867" dy="1017" grid="1" gridSize="10" guides="1" tooltips="1" connect="1" arrows="1" fold="1" page="1" pageScale="1" pageWidth="1600" pageHeight="900" math="0" shadow="0">
      <root>
        <mxCell id="0" />
        <mxCell id="1" parent="0" />
        <mxCell id="_lmvWrelcx3DangqbC46-6" value="HOME/LANDING PAGE/USER - SKATER" style="strokeWidth=1;shadow=0;dashed=0;align=center;html=1;shape=mxgraph.mockup.containers.window;align=left;verticalAlign=top;spacingLeft=8;strokeColor2=#008cff;strokeColor3=#c4c4c4;mainText=;fontSize=15;labelBackgroundColor=none;whiteSpace=wrap;fillColor=#FAFAFA;" vertex="1" parent="1">
          <mxGeometry width="1600" height="900" as="geometry" />
        </mxCell>
        <mxCell id="_lmvWrelcx3DangqbC46-9" value="" style="whiteSpace=wrap;html=1;" vertex="1" parent="1">
          <mxGeometry x="20" y="40" width="1560" height="60" as="geometry" />
        </mxCell>
        <mxCell id="_lmvWrelcx3DangqbC46-8" value="" style="html=1;verticalLabelPosition=bottom;align=center;labelBackgroundColor=#ffffff;verticalAlign=top;strokeWidth=2;strokeColor=#0080F0;shadow=0;dashed=0;shape=mxgraph.ios7.icons.user;" vertex="1" parent="1">
          <mxGeometry x="1530" y="55" width="30" height="30" as="geometry" />
        </mxCell>
        <mxCell id="_lmvWrelcx3DangqbC46-15" value="HOME" style="strokeWidth=1;shadow=0;dashed=0;align=center;html=1;shape=mxgraph.mockup.buttons.button;strokeColor=#666666;fontColor=#4D4D4D;mainText=;buttonStyle=round;fontSize=12;fontStyle=1;fillColor=#E6E6E6;whiteSpace=wrap;" vertex="1" parent="1">
          <mxGeometry x="40" y="55" width="120" height="30" as="geometry" />
        </mxCell>
        <mxCell id="_lmvWrelcx3DangqbC46-17" value="LOG -N/OUT" style="strokeWidth=1;shadow=0;dashed=0;align=center;html=1;shape=mxgraph.mockup.buttons.button;strokeColor=#666666;fontColor=#4D4D4D;mainText=;buttonStyle=round;fontSize=12;fontStyle=1;fillColor=none;whiteSpace=wrap;" vertex="1" parent="1">
          <mxGeometry x="1400" y="55" width="120" height="30" as="geometry" />
        </mxCell>
        <mxCell id="_lmvWrelcx3DangqbC46-19" value="" style="verticalLabelPosition=bottom;shadow=0;dashed=0;align=center;html=1;verticalAlign=top;strokeWidth=1;shape=mxgraph.mockup.containers.userMale;strokeColor=#666666;strokeColor2=#008cff;" vertex="1" parent="1">
          <mxGeometry x="100" y="220" width="550" height="550" as="geometry" />
        </mxCell>
        <mxCell id="_lmvWrelcx3DangqbC46-20" value="3" style="whiteSpace=wrap;html=1;fontSize=71;fontColor=#007FFF;" vertex="1" parent="1">
          <mxGeometry x="710" y="260" width="260" height="120" as="geometry" />
        </mxCell>
        <mxCell id="_lmvWrelcx3DangqbC46-22" value="PATCHES REMAINING" style="whiteSpace=wrap;html=1;" vertex="1" parent="1">
          <mxGeometry x="710" y="220" width="140" height="30" as="geometry" />
        </mxCell>
        <mxCell id="_lmvWrelcx3DangqbC46-26" value="1" style="whiteSpace=wrap;html=1;fontSize=71;fontColor=#FF0000;" vertex="1" parent="1">
          <mxGeometry x="1030" y="260" width="260" height="120" as="geometry" />
        </mxCell>
        <mxCell id="_lmvWrelcx3DangqbC46-27" value="PATCHES USED" style="whiteSpace=wrap;html=1;" vertex="1" parent="1">
          <mxGeometry x="1030" y="220" width="140" height="30" as="geometry" />
        </mxCell>
        <mxCell id="_lmvWrelcx3DangqbC46-30" value="SKATER IMG" style="whiteSpace=wrap;html=1;" vertex="1" parent="1">
          <mxGeometry x="110" y="240" width="140" height="30" as="geometry" />
        </mxCell>
        <mxCell id="_lmvWrelcx3DangqbC46-34" value="21 MARCH 2023" style="whiteSpace=wrap;html=1;fontSize=21;" vertex="1" parent="1">
          <mxGeometry x="710" y="455" width="260" height="120" as="geometry" />
        </mxCell>
        <mxCell id="_lmvWrelcx3DangqbC46-35" value="DATE PURCHASED" style="whiteSpace=wrap;html=1;" vertex="1" parent="1">
          <mxGeometry x="710" y="415" width="140" height="30" as="geometry" />
        </mxCell>
        <mxCell id="_lmvWrelcx3DangqbC46-36" value="29 MARCH 2023" style="whiteSpace=wrap;html=1;fontSize=21;" vertex="1" parent="1">
          <mxGeometry x="1030" y="455" width="260" height="120" as="geometry" />
        </mxCell>
        <mxCell id="_lmvWrelcx3DangqbC46-37" value="DATE USED" style="whiteSpace=wrap;html=1;" vertex="1" parent="1">
          <mxGeometry x="1030" y="415" width="140" height="30" as="geometry" />
        </mxCell>
        <mxCell id="_lmvWrelcx3DangqbC46-38" value="21 SEPTEMBER 2023" style="whiteSpace=wrap;html=1;fontSize=21;" vertex="1" parent="1">
          <mxGeometry x="710" y="650" width="260" height="120" as="geometry" />
        </mxCell>
        <mxCell id="_lmvWrelcx3DangqbC46-39" value="EXPIRES" style="whiteSpace=wrap;html=1;" vertex="1" parent="1">
          <mxGeometry x="710" y="610" width="140" height="30" as="geometry" />
        </mxCell>
        <mxCell id="_lmvWrelcx3DangqbC46-40" value="SKATER NAME" style="whiteSpace=wrap;html=1;fontSize=21;fontStyle=0;fontColor=#E6E6E6;fillColor=#4D4D4D;" vertex="1" parent="1">
          <mxGeometry x="100" y="130" width="190" height="80" as="geometry" />
        </mxCell>
        <mxCell id="_lmvWrelcx3DangqbC46-41" value="COACH" style="whiteSpace=wrap;html=1;fontSize=21;fillColor=#4D4D4D;fontColor=#E6E6E6;" vertex="1" parent="1">
          <mxGeometry x="300" y="130" width="170" height="80" as="geometry" />
        </mxCell>
        <mxCell id="_lmvWrelcx3DangqbC46-42" value="WP REG. NO" style="whiteSpace=wrap;html=1;fontSize=21;fontColor=#E6E6E6;fillColor=#4D4D4D;" vertex="1" parent="1">
          <mxGeometry x="480" y="130" width="170" height="80" as="geometry" />
        </mxCell>
        <mxCell id="_lmvWrelcx3DangqbC46-43" value="ID: 1" style="whiteSpace=wrap;html=1;fontSize=21;" vertex="1" parent="1">
          <mxGeometry x="1030" y="650" width="260" height="120" as="geometry" />
        </mxCell>
        <mxCell id="_lmvWrelcx3DangqbC46-44" value="PTCH CARD ID" style="whiteSpace=wrap;html=1;" vertex="1" parent="1">
          <mxGeometry x="1030" y="610" width="140" height="30" as="geometry" />
        </mxCell>
      </root>
    </mxGraphModel>
  </diagram>
  <diagram id="_89JdAcQdwftwHwftety" name="SKATER HOME PAGE MOBILE">
    <mxGraphModel dx="1244" dy="678" grid="1" gridSize="10" guides="1" tooltips="1" connect="1" arrows="1" fold="1" page="1" pageScale="1" pageWidth="1169" pageHeight="827" math="0" shadow="0">
      <root>
        <mxCell id="0" />
        <mxCell id="1" parent="0" />
        <mxCell id="ue3CkY_gUmFLmaMpg0p_-3" value="" style="html=1;verticalLabelPosition=bottom;labelBackgroundColor=#ffffff;verticalAlign=top;shadow=0;dashed=0;strokeWidth=1;shape=mxgraph.ios7.misc.iphone;strokeColor=#c0c0c0;fillColor=#FFFFFF;" vertex="1" parent="1">
          <mxGeometry x="990" y="40" width="380" height="760" as="geometry" />
        </mxCell>
        <mxCell id="ue3CkY_gUmFLmaMpg0p_-4" value="" style="html=1;verticalLabelPosition=bottom;align=center;labelBackgroundColor=#ffffff;verticalAlign=top;strokeWidth=2;strokeColor=#0080F0;shadow=0;dashed=0;shape=mxgraph.ios7.icons.user;" vertex="1" parent="1">
          <mxGeometry x="1310" y="160" width="30" height="30" as="geometry" />
        </mxCell>
        <mxCell id="jwu72my-hOGduwMswJnl-1" value="" style="verticalLabelPosition=bottom;shadow=0;dashed=0;align=center;html=1;verticalAlign=top;strokeWidth=1;shape=mxgraph.mockup.containers.userMale;strokeColor=#666666;strokeColor2=#008cff;" vertex="1" parent="1">
          <mxGeometry x="1070" y="190" width="220" height="180" as="geometry" />
        </mxCell>
        <mxCell id="zZmw2Le10C9-1KDYrhUc-1" value="SKATER NAME" style="whiteSpace=wrap;html=1;fontSize=8;fillColor=#4D4D4D;fontColor=#FAFAFA;" vertex="1" parent="1">
          <mxGeometry x="1070" y="170" width="70" height="20" as="geometry" />
        </mxCell>
        <mxCell id="zZmw2Le10C9-1KDYrhUc-7" value="COACH" style="whiteSpace=wrap;html=1;fontSize=8;fillColor=#4D4D4D;fontColor=#FAFAFA;" vertex="1" parent="1">
          <mxGeometry x="1145" y="170" width="70" height="20" as="geometry" />
        </mxCell>
        <mxCell id="zZmw2Le10C9-1KDYrhUc-8" value="WP NO." style="whiteSpace=wrap;html=1;fontSize=8;fillColor=#4D4D4D;fontColor=#FAFAFA;" vertex="1" parent="1">
          <mxGeometry x="1220" y="170" width="70" height="20" as="geometry" />
        </mxCell>
        <mxCell id="zZmw2Le10C9-1KDYrhUc-9" value="SKATER IMG" style="whiteSpace=wrap;html=1;fontSize=8;" vertex="1" parent="1">
          <mxGeometry x="1070" y="200" width="70" height="20" as="geometry" />
        </mxCell>
        <mxCell id="QO__EjYD_PHOJB01iosn-2" value="PATCHES REMAINING" style="whiteSpace=wrap;html=1;fontSize=7;" vertex="1" parent="1">
          <mxGeometry x="1070" y="414" width="80" height="10" as="geometry" />
        </mxCell>
        <mxCell id="QO__EjYD_PHOJB01iosn-3" value="PATCHES USED" style="whiteSpace=wrap;html=1;fontSize=7;" vertex="1" parent="1">
          <mxGeometry x="1210" y="414" width="80" height="10" as="geometry" />
        </mxCell>
        <mxCell id="QO__EjYD_PHOJB01iosn-4" value="3" style="whiteSpace=wrap;html=1;fontColor=#007FFF;" vertex="1" parent="1">
          <mxGeometry x="1070" y="434" width="80" height="40" as="geometry" />
        </mxCell>
        <mxCell id="QO__EjYD_PHOJB01iosn-5" value="1" style="whiteSpace=wrap;html=1;fontColor=#FF0000;" vertex="1" parent="1">
          <mxGeometry x="1210" y="434" width="80" height="40" as="geometry" />
        </mxCell>
        <mxCell id="QO__EjYD_PHOJB01iosn-12" value="DATE PURCHASED" style="whiteSpace=wrap;html=1;fontSize=7;" vertex="1" parent="1">
          <mxGeometry x="1070" y="494" width="80" height="10" as="geometry" />
        </mxCell>
        <mxCell id="QO__EjYD_PHOJB01iosn-13" value="21 MARCH 2023" style="whiteSpace=wrap;html=1;fontSize=8;" vertex="1" parent="1">
          <mxGeometry x="1070" y="514" width="80" height="40" as="geometry" />
        </mxCell>
        <mxCell id="QO__EjYD_PHOJB01iosn-14" value="21 SEPTEMBER 2023" style="whiteSpace=wrap;html=1;fontSize=6;" vertex="1" parent="1">
          <mxGeometry x="1070" y="594" width="80" height="40" as="geometry" />
        </mxCell>
        <mxCell id="QO__EjYD_PHOJB01iosn-15" value="EXPIRES" style="whiteSpace=wrap;html=1;fontSize=7;" vertex="1" parent="1">
          <mxGeometry x="1070" y="574" width="80" height="10" as="geometry" />
        </mxCell>
        <mxCell id="QO__EjYD_PHOJB01iosn-20" value="29 MARCH 2023" style="whiteSpace=wrap;html=1;fontSize=8;" vertex="1" parent="1">
          <mxGeometry x="1210" y="514" width="80" height="40" as="geometry" />
        </mxCell>
        <mxCell id="QO__EjYD_PHOJB01iosn-21" value="DATE USED" style="whiteSpace=wrap;html=1;fontSize=7;" vertex="1" parent="1">
          <mxGeometry x="1210" y="494" width="80" height="10" as="geometry" />
        </mxCell>
        <mxCell id="QO__EjYD_PHOJB01iosn-22" value="ID: 1" style="whiteSpace=wrap;html=1;fontSize=11;" vertex="1" parent="1">
          <mxGeometry x="1210" y="594" width="80" height="40" as="geometry" />
        </mxCell>
        <mxCell id="QO__EjYD_PHOJB01iosn-23" value="PATCH CARD NO." style="whiteSpace=wrap;html=1;fontSize=7;" vertex="1" parent="1">
          <mxGeometry x="1210" y="574" width="80" height="10" as="geometry" />
        </mxCell>
      </root>
    </mxGraphModel>
  </diagram>
</mxfile>
